<svg xmlns="http://www.w3.org/2000/svg" version="1.1" xmlns:xlink="http://www.w3.org/1999/xlink" xmlns:svgjs="http://svgjs.dev/svgjs" width="1000" height="1000" viewBox="0 0 1000 1000"><rect width="1000" height="1000" fill="#ffffff"></rect><g transform="matrix(0.7,0,0,0.7,149.57576037075717,414.47107096132277)"><svg viewBox="0 0 396 97" data-background-color="#ffffff" preserveAspectRatio="xMidYMid meet" height="244" width="1000" xmlns="http://www.w3.org/2000/svg" xmlns:xlink="http://www.w3.org/1999/xlink"><g id="tight-bounds" transform="matrix(1,0,0,1,0.23999841882880446,0.07322082407313246)"><svg viewBox="0 0 395.52 96.85355835185374" height="96.85355835185374" width="395.52"><g><svg viewBox="0 0 657.3249308773062 160.96343686502175" height="96.85355835185374" width="395.52"><g transform="matrix(1,0,0,1,261.8049308773062,0)"><svg viewBox="0 0 395.52 160.96343686502175" height="160.96343686502175" width="395.52"><g id="textblocktransform"><svg viewBox="0 0 395.52 160.96343686502175" height="160.96343686502175" width="395.52" id="textblock"><g><svg viewBox="0 0 395.52 160.96343686502175" height="160.96343686502175" width="395.52"><g transform="matrix(1,0,0,1,0,0)"><svg width="395.52" viewBox="1.8999977111816406 -31.55000114440918 172.25 67.10000610351562" height="160.96343686502175" data-palette-color="#001f3f"><svg></svg><svg></svg><g class="wordmark-text-0" data-fill-palette-color="primary" id="text-0"><path xmlns="http://www.w3.org/2000/svg" d="M19.5-7l-0.5 7h-16.8v-31.05h17.3l-0.5 7.65h-8.25v4.65h7.15v6.6h-7.15v5.15zM38.7-6.95l-0.5 6.95h-15.8v-31.05h8.55v24.1zM53.95-31.05h9l-5.25 31.05h-13.2l-5.6-31.05h9.45l2.7 20.35h0.85zM74.75-31.05v31.05h-8.5v-31.05zM78.25-21.7c0-2.967 0.867-5.35 2.6-7.15 1.733-1.8 4.11-2.7 7.13-2.7 3.013 0 6.103 0.3 9.27 0.9v0l-1 8c-3.3-0.767-5.567-1.15-6.8-1.15v0c-1.567 0-2.35 0.633-2.35 1.9v0c0 0.5 0.377 0.983 1.13 1.45 0.747 0.467 1.653 0.957 2.72 1.47 1.067 0.52 2.133 1.137 3.2 1.85 1.067 0.72 1.977 1.747 2.73 3.08 0.747 1.333 1.12 2.867 1.12 4.6v0c0 3.167-0.85 5.617-2.55 7.35-1.7 1.733-4.107 2.6-7.22 2.6-3.12 0-6.163-0.483-9.13-1.45v0l0.55-7.45c3.567 1.033 6.05 1.55 7.45 1.55 1.4 0 2.1-0.617 2.1-1.85v0c0-0.633-0.373-1.217-1.12-1.75-0.753-0.533-1.663-1.067-2.73-1.6-1.067-0.533-2.14-1.15-3.22-1.85-1.087-0.7-2.003-1.717-2.75-3.05-0.753-1.333-1.13-2.917-1.13-4.75z" fill="#001f3f" fill-rule="nonzero" stroke="none" stroke-width="1" stroke-linecap="butt" stroke-linejoin="miter" stroke-miterlimit="10" stroke-dasharray="" stroke-dashoffset="0" font-family="none" font-weight="none" font-size="none" text-anchor="none" style="mix-blend-mode: normal" data-fill-palette-color="primary" opacity="1"></path><path xmlns="http://www.w3.org/2000/svg" d="M31.2 4l1.05 31.05h-7.85v-16.2h-0.45l-2.95 16.2h-8.05l-2.8-16.2h-0.5v16.2h-7.75l1.05-31.05h11.25l2.8 16.8h0.4l2.7-16.8zM45.1 24.85c0 1.033 0.217 1.8 0.65 2.3 0.433 0.5 1.143 0.75 2.13 0.75 0.98 0 1.66-0.243 2.04-0.73 0.387-0.48 0.58-1.27 0.58-2.37v0-20.8h8.6v21.3c0 3.567-0.977 6.167-2.93 7.8-1.947 1.633-4.81 2.45-8.59 2.45-3.787 0-6.603-0.81-8.45-2.43-1.853-1.613-2.78-4.187-2.78-7.72v0-21.4h8.75zM83.55 5.1l-1.35 8.15c-3.2-0.967-5.543-1.45-7.03-1.45-1.48 0-2.493 0.65-3.04 1.95-0.553 1.3-0.83 3.357-0.83 6.17 0 2.82 0.26 4.873 0.78 6.16 0.513 1.28 1.57 1.92 3.17 1.92v0c0.467 0 1.367-0.133 2.7-0.4v0-3.8h-2.25v-5.9h9.55v17.15h-5.9l-0.8-1.6h-0.2c-0.567 0.467-1.017 0.817-1.35 1.05v0c-0.933 0.7-2.25 1.05-3.95 1.05v0c-6.967 0-10.45-5.267-10.45-15.8v0c0-5.267 0.917-9.293 2.75-12.08 1.833-2.78 4.917-4.17 9.25-4.17v0c3.467 0 6.45 0.533 8.95 1.6zM98.45 4v31.05h-8.5v-31.05zM101.95 13.35c0-2.967 0.867-5.35 2.6-7.15 1.733-1.8 4.11-2.7 7.13-2.7 3.013 0 6.103 0.3 9.27 0.9v0l-1 8c-3.3-0.767-5.567-1.15-6.8-1.15v0c-1.567 0-2.35 0.633-2.35 1.9v0c0 0.5 0.377 0.983 1.13 1.45 0.747 0.467 1.653 0.957 2.72 1.47 1.067 0.52 2.133 1.137 3.2 1.85 1.067 0.72 1.977 1.747 2.73 3.08 0.747 1.333 1.12 2.867 1.12 4.6v0c0 3.167-0.85 5.617-2.55 7.35-1.7 1.733-4.107 2.6-7.22 2.6-3.12 0-6.163-0.483-9.13-1.45v0l0.55-7.45c3.567 1.033 6.05 1.55 7.45 1.55 1.4 0 2.1-0.617 2.1-1.85v0c0-0.633-0.373-1.217-1.12-1.75-0.753-0.533-1.663-1.067-2.73-1.6-1.067-0.533-2.14-1.15-3.22-1.85-1.087-0.7-2.003-1.717-2.75-3.05-0.753-1.333-1.13-2.917-1.13-4.75zM147.65 4v31.05h-8.5v-11.75h-5.85v11.75h-8.6v-31.05h8.6v12.2h5.85v-12.2zM168.45 4l5.7 31.05h-8.35l-0.95-4.9h-5.9l-0.95 4.9h-7.95l5.7-31.05zM160.05 24.3h3.85l-1.75-11.1h-0.35z" fill="#edbbba" fill-rule="nonzero" stroke="none" stroke-width="1" stroke-linecap="butt" stroke-linejoin="miter" stroke-miterlimit="10" stroke-dasharray="" stroke-dashoffset="0" font-family="none" font-weight="none" font-size="none" text-anchor="none" style="mix-blend-mode: normal" data-fill-palette-color="secondary" opacity="1"></path></g></svg></g></svg></g></svg></g></svg></g><g transform="matrix(1,0,0,1,0,5.3735741652635625)"><svg viewBox="0 0 244.43135999999998 150.21628853449462" height="150.21628853449462" width="244.43135999999998"><g><svg xmlns="http://www.w3.org/2000/svg" data-name="Layer 1" viewBox="2.430551767349243 20.79190444946289 95.1390609741211 58.46809768676758" x="0" y="0" height="150.21628853449462" width="244.43135999999998" class="icon-icon-0" data-fill-palette-color="accent" id="icon-0"><path d="M62.78 23l32 55.42 1.3-2.26h-64l1.3 2.26L65.37 23a1.5 1.5 0 0 0-2.59-1.51L30.79 77a1.51 1.51 0 0 0 1.3 2.26h64A1.51 1.51 0 0 0 97.37 77l-32-55.42A1.5 1.5 0 0 0 62.78 23Z" fill="#001f3f" data-fill-palette-color="accent"></path><path d="M34.63 23l32 55.42 1.3-2.26h-64l1.3 2.26L37.22 23a1.5 1.5 0 0 0-2.59-1.51L2.63 77a1.51 1.51 0 0 0 1.3 2.26h64A1.51 1.51 0 0 0 69.21 77l-32-55.42A1.5 1.5 0 0 0 34.63 23Z" fill="#001f3f" data-fill-palette-color="accent"></path></svg></g></svg></g></svg></g><defs></defs></svg><rect width="395.52" height="96.85355835185374" fill="none" stroke="none" visibility="hidden"></rect></g></svg></g></svg>